<svg xmlns="http://www.w3.org/2000/svg" version="1.1" xmlns:xlink="http://www.w3.org/1999/xlink" xmlns:svgjs="http://svgjs.com/svgjs" width="179.28mm" height="141.19mm"><svg width="179.28mm" height="141.19mm" version="1.1" viewBox="0 0 179.28 141.19" xmlns="http://www.w3.org/2000/svg">
 <g transform="translate(-17.73 -66.553)" fill-rule="evenodd">
  <path d="m107.37 66.553c49.508 0 89.641 40.134 89.641 89.642 0 19.187-6.0311 36.964-16.297 51.544h-146.69c-10.266-14.58-16.297-32.357-16.297-51.544 0-49.508 40.134-89.642 89.642-89.642" fill="#e0f1fb"></path>
  <path d="m154.94 115.55-9.202 7.1247-11.174-1.3889 1.7159-1.5104 17.64-4.6185-0.44865-1.9399 1.0202 0.39446 0.4493 1.9386" fill="#463d3b"></path>
  <path d="m123.22 110.41 3.1253 13.492-9.5142 1.7272-3.1259-13.493 9.5149-1.7266" fill="#463d3b"></path>
  <path d="m144.18 115.98 9.2853-2.7566 0.44865 1.9399-8.5942 5.7345-11.192-1.4682-1.1398-4.9178 11.192 1.4681" fill="#766864"></path>
  <path d="m134.18 110.13 2.4703 10.3-10.04 6.4723-4.3947-18.322 11.964 1.5498" fill="#2f2825"></path>
  <path d="m90.144 148.43h3.08e-4c6.8098 0 12.381 5.5701 12.381 12.381v21.581h-24.763v-21.581c0-6.811 5.5713-12.381 12.381-12.381" fill="#463d3b"></path>
  <path d="m104.57 150.73c1.1279 1.6955 1.9742 3.6188 2.4566 5.7209 2.141 9.3254-3.6824 18.62-13.007 20.762-9.3254 2.141-18.621-3.6832-20.762-13.008-0.48279-2.1012-0.56025-4.2025-0.28484-6.2193 2.2627-16.56 0.26188-31.3-6.3324-46.658-0.28442-0.66147-0.51344-1.3586-0.68045-2.0865-1.5-6.5324 2.58-13.044 9.1128-14.544 6.5332-1.5 13.045 2.5799 14.545 9.1127 0.16721 0.72787 0.26516 1.4541 0.29795 2.1746 0.76516 16.695 5.3951 30.832 14.655 44.746" fill="#4ba6ce"></path>
  <path d="m78.141 118.13c-1.3639 0.0418-2.7586-0.1586-4.1254-0.62828-6.0647-2.0856-9.2905-8.6926-7.2053-14.757 2.0856-6.0643 8.6922-9.2905 14.757-7.2053 1.3668 0.47049 2.5897 1.1701 3.6393 2.041 8.6213 7.1541 17.718 11.239 28.792 12.927 0.47745 0.0725 0.95532 0.18853 1.4283 0.35164 4.2488 1.4606 6.5086 6.0893 5.0475 10.338-1.4606 4.2492-6.0893 6.5086-10.338 5.048-0.47295-0.16312-0.92172-0.36476-1.3422-0.60164-9.7717-5.4787-19.456-7.8529-30.654-7.5139" fill="#61c2e7"></path>
  <path d="m83.9 108.62c-1.1598 3.3742-4.8361 5.1684-8.2094 4.009-3.3742-1.1606-5.1684-4.836-4.0086-8.2102 1.1602-3.3742 4.8361-5.168 8.2098-4.0078 3.3738 1.1594 5.1684 4.8348 4.0082 8.209" fill="#766864"></path>
  <path d="m88.425 152.83c4.1361-0.95041 8.259 1.6332 9.209 5.7692 0.94918 4.136-1.6336 8.2586-5.7697 9.209-4.1361 0.94918-8.2594-1.6332-9.209-5.7696-0.95-4.1356 1.6336-8.259 5.7697-9.2086" fill="#463d3b"></path>
  <path d="m116.88 119.96c-0.77786 2.2615-3.2414 3.4643-5.5033 2.6865-2.261-0.77745-3.4639-3.241-2.6865-5.5024 0.77786-2.2615 3.2414-3.4643 5.5028-2.6869 2.2615 0.77787 3.4643 3.2418 2.6869 5.5029" fill="#766864"></path>
  <path d="m68.318 205.69h43.653v-25.252h-43.653v25.252" fill="#4ba6ce"></path>
  <path d="m118.99 202.02h7.1233v-3.9152h-7.1233v3.9152" fill="#2f2825"></path>
  <path d="m117.37 203.63h10.669v-3.9152h-10.669v3.9152" fill="#463d3b"></path>
  <path d="m120.01 203.63h5.0897v-3.9152h-5.0897v3.9152" fill="#766864"></path>
  <path d="m53.877 202.02h7.1239v-3.9152h-7.1239v3.9152" fill="#2f2825"></path>
  <path d="m52.251 203.63h10.668v-3.9152h-10.668v3.9152" fill="#463d3b"></path>
  <path d="m54.894 203.63h5.0895v-3.9152h-5.0895v3.9152" fill="#766864"></path>
  <path d="m97.829 205.69h14.142v-25.252h-14.142v25.252" fill="#3987b2"></path>
  <path d="m48.743 207.74h82.803v-4.1106h-82.803v4.1106" fill="#2c6b96"></path>
  <path d="m144.83 110.06-9.4088 6.0305-2.2683-0.87547 6.6748-9.1208-0.0786-0.33896 1.7153-1.5098 12.056 5.198-0.7724 0.68056-7.9182-0.064" fill="#2f2825"></path>
  <path d="m142.61 109.17 10.917 0.28015-0.44996-1.9386-11.606-3.2594-9.4505 6.0517 1.1391 4.9178 9.4505-6.0516" fill="#463d3b"></path>
 </g>
</svg><style>@media (prefers-color-scheme: light) { :root { filter: none; } }
</style></svg>