<?xml version="1.0" encoding="UTF-8"?>
<!-- Created with Inkscape (http://www.inkscape.org/) -->
<svg width="179.28mm" height="141.19mm" version="1.1" viewBox="0 0 179.28 141.19" xmlns="http://www.w3.org/2000/svg">
 <g transform="translate(-17.73 -66.553)" fill-rule="evenodd">
  <path d="m107.37 66.553c49.508 0 89.641 40.134 89.641 89.642 0 19.187-6.0311 36.964-16.297 51.544h-146.69c-10.266-14.58-16.297-32.357-16.297-51.544 0-49.508 40.134-89.642 89.642-89.642" fill="#e0f1fb"/>
  <path d="m134.37 126.78-4.9131 3.804-5.9662-0.74154 0.91617-0.80644 9.4181-2.4659-0.23954-1.0358 0.54469 0.21061 0.23989 1.035" fill="#463d3b"/>
  <path d="m117.43 124.03 1.6686 7.2037-13.751 3.1856-1.669-7.2041 13.752-3.1852" fill="#463d3b"/>
  <path d="m128.63 127 4.9576-1.4718 0.23954 1.0358-4.5886 3.0618-5.9757-0.78388-0.60854-2.6257 5.9757 0.78387" fill="#766864"/>
  <path d="m123.02 123.03 1.5388 6.6442-6.254 4.1751-2.7376-11.819 7.4528 0.99977" fill="#2f2825"/>
  <path d="m84.38 156.69h2.65e-4c5.8618 0 10.657 4.7946 10.657 10.657v18.577h-21.315v-18.577c0-5.8628 4.7957-10.657 10.657-10.657" fill="#463d3b"/>
  <path d="m96.8 158.66c0.97085 1.4594 1.6993 3.115 2.1146 4.9244 1.8429 8.0271-3.1697 16.028-11.196 17.871-8.0271 1.8429-16.028-3.1704-17.871-11.197-0.41557-1.8087-0.48225-3.6174-0.24518-5.3534 1.9477-14.254 0.22542-26.943-5.4508-40.162-0.24483-0.56938-0.44196-1.1695-0.58572-1.796-1.2912-5.6229 2.2208-11.228 7.8441-12.519 5.6236-1.2912 11.229 2.2207 12.52 7.844 0.14393 0.62654 0.22825 1.2517 0.25647 1.8718 0.65864 14.371 4.644 26.54 12.615 38.516" fill="#4ba6ce"/>
  <path d="m74.048 130.61c-1.174 0.036-2.3745-0.13652-3.5511-0.54081-5.2204-1.7953-7.997-7.4824-6.2022-12.702 1.7953-5.22 7.4821-7.9971 12.703-6.2022 1.1765 0.40499 2.2292 1.0072 3.1327 1.7568 7.421 6.1581 15.251 9.6742 24.784 11.128 0.41098 0.0624 0.82232 0.16228 1.2294 0.30268 3.6572 1.2573 5.6025 5.2416 4.3448 8.8988-1.2573 3.6576-5.2416 5.6025-8.8988 4.3452-0.40711-0.14041-0.7934-0.31398-1.1554-0.51788-8.4113-4.7159-16.747-6.7596-26.386-6.4678" fill="#61c2e7"/>
  <path d="m79.005 122.42c-0.99836 2.9044-4.1628 4.4489-7.0665 3.4509-2.9044-0.99906-4.4489-4.1628-3.4505-7.0672 0.99871-2.9044 4.1628-4.4485 7.0668-3.4498 2.9041 0.99801 4.4489 4.1617 3.4502 7.0661" fill="#766864"/>
  <path d="m82.9 160.48c3.5602-0.81809 7.1092 1.4058 7.9269 4.9661 0.81703 3.5602-1.4062 7.1088-4.9664 7.9269-3.5602 0.81704-7.1095-1.4058-7.9269-4.9664-0.81774-3.5599 1.4062-7.1092 4.9664-7.9266" fill="#463d3b"/>
  <path d="m107.39 132.18c-0.66957 1.9466-2.7901 2.982-4.7371 2.3124-1.9463-0.66921-2.9817-2.7898-2.3124-4.7364 0.66957-1.9466 2.7901-2.982 4.7367-2.3128 1.9466 0.66957 2.982 2.7905 2.3128 4.7368" fill="#766864"/>
  <path d="m65.593 205.97h37.575v-21.736h-37.575v21.736" fill="#4ba6ce"/>
  <path d="m109.21 202.82h6.1316v-3.3701h-6.1316v3.3701" fill="#2f2825"/>
  <path d="m107.82 204.21h9.1835v-3.3701h-9.1835v3.3701" fill="#463d3b"/>
  <path d="m110.09 204.21h4.3812v-3.3701h-4.3812v3.3701" fill="#766864"/>
  <path d="m53.162 202.82h6.1321v-3.3701h-6.1321v3.3701" fill="#2f2825"/>
  <path d="m51.763 204.21h9.1832v-3.3701h-9.1832v3.3701" fill="#463d3b"/>
  <path d="m54.038 204.21h4.3809v-3.3701h-4.3809v3.3701" fill="#766864"/>
  <path d="m90.995 205.97h12.173v-21.736h-12.173v21.736" fill="#3987b2"/>
  <path d="m48.743 207.74h71.276v-3.5384h-71.276v3.5384" fill="#2c6b96"/>
  <path d="m128.97 123.85-5.0236 3.2198-1.2111-0.46743 3.5638-4.8697-0.042-0.18098 0.91582-0.8061 6.4371 2.7753-0.4124 0.36336-4.2277-0.0342" fill="#2f2825"/>
  <path d="m127.79 123.37 5.829 0.14958-0.24024-1.035-6.1969-1.7403-5.0458 3.2311 0.60819 2.6257 5.0458-3.2311" fill="#463d3b"/>
 </g>
</svg>
